<svg id="visual" viewBox="0 0 960 300" width="960" height="300" xmlns="http://www.w3.org/2000/svg" xmlns:xlink="http://www.w3.org/1999/xlink" version="1.1"><rect x="0" y="0" width="960" height="300" fill="#FF0066"></rect><path d="M0 149L16 149.2C32 149.3 64 149.7 96 139.5C128 129.3 160 108.7 192 113.8C224 119 256 150 288 155.3C320 160.7 352 140.3 384 138.7C416 137 448 154 480 155.2C512 156.3 544 141.7 576 129.3C608 117 640 107 672 115.7C704 124.3 736 151.7 768 156.3C800 161 832 143 864 138.8C896 134.7 928 144.3 944 149.2L960 154L960 0L944 0C928 0 896 0 864 0C832 0 800 0 768 0C736 0 704 0 672 0C640 0 608 0 576 0C544 0 512 0 480 0C448 0 416 0 384 0C352 0 320 0 288 0C256 0 224 0 192 0C160 0 128 0 96 0C64 0 32 0 16 0L0 0Z" fill="#ff00d1"></path><path d="M0 127L16 125.3C32 123.7 64 120.3 96 123.5C128 126.7 160 136.3 192 128.8C224 121.3 256 96.7 288 91.3C320 86 352 100 384 110.8C416 121.7 448 129.3 480 122.8C512 116.3 544 95.7 576 91.8C608 88 640 101 672 100.3C704 99.7 736 85.3 768 82C800 78.7 832 86.3 864 96.3C896 106.3 928 118.7 944 124.8L960 131L960 0L944 0C928 0 896 0 864 0C832 0 800 0 768 0C736 0 704 0 672 0C640 0 608 0 576 0C544 0 512 0 480 0C448 0 416 0 384 0C352 0 320 0 288 0C256 0 224 0 192 0C160 0 128 0 96 0C64 0 32 0 16 0L0 0Z" fill="#dd1fd5"></path><path d="M0 59L16 63.8C32 68.7 64 78.3 96 87C128 95.7 160 103.3 192 100.3C224 97.3 256 83.7 288 83.3C320 83 352 96 384 96.2C416 96.3 448 83.7 480 86.3C512 89 544 107 576 108.5C608 110 640 95 672 93C704 91 736 102 768 101.8C800 101.7 832 90.3 864 82.2C896 74 928 69 944 66.5L960 64L960 0L944 0C928 0 896 0 864 0C832 0 800 0 768 0C736 0 704 0 672 0C640 0 608 0 576 0C544 0 512 0 480 0C448 0 416 0 384 0C352 0 320 0 288 0C256 0 224 0 192 0C160 0 128 0 96 0C64 0 32 0 16 0L0 0Z" fill="#b82dd6"></path><path d="M0 67L16 72.5C32 78 64 89 96 86.5C128 84 160 68 192 60.8C224 53.7 256 55.3 288 59.3C320 63.3 352 69.7 384 73.3C416 77 448 78 480 77.3C512 76.7 544 74.3 576 71.8C608 69.3 640 66.7 672 67.8C704 69 736 74 768 75.7C800 77.3 832 75.7 864 71C896 66.3 928 58.7 944 54.8L960 51L960 0L944 0C928 0 896 0 864 0C832 0 800 0 768 0C736 0 704 0 672 0C640 0 608 0 576 0C544 0 512 0 480 0C448 0 416 0 384 0C352 0 320 0 288 0C256 0 224 0 192 0C160 0 128 0 96 0C64 0 32 0 16 0L0 0Z" fill="#9136d4"></path><path d="M0 23L16 29.8C32 36.7 64 50.3 96 52C128 53.7 160 43.3 192 45C224 46.7 256 60.3 288 65.5C320 70.7 352 67.3 384 61.5C416 55.7 448 47.3 480 44.7C512 42 544 45 576 45.8C608 46.7 640 45.3 672 41.5C704 37.7 736 31.3 768 34.8C800 38.3 832 51.7 864 58C896 64.3 928 63.7 944 63.3L960 63L960 0L944 0C928 0 896 0 864 0C832 0 800 0 768 0C736 0 704 0 672 0C640 0 608 0 576 0C544 0 512 0 480 0C448 0 416 0 384 0C352 0 320 0 288 0C256 0 224 0 192 0C160 0 128 0 96 0C64 0 32 0 16 0L0 0Z" fill="#653bcf"></path><path d="M0 11L16 17.2C32 23.3 64 35.7 96 39.8C128 44 160 40 192 34.5C224 29 256 22 288 19.7C320 17.3 352 19.7 384 20.8C416 22 448 22 480 20.8C512 19.7 544 17.3 576 20.5C608 23.7 640 32.3 672 34.7C704 37 736 33 768 31.8C800 30.7 832 32.3 864 34C896 35.7 928 37.3 944 38.2L960 39L960 0L944 0C928 0 896 0 864 0C832 0 800 0 768 0C736 0 704 0 672 0C640 0 608 0 576 0C544 0 512 0 480 0C448 0 416 0 384 0C352 0 320 0 288 0C256 0 224 0 192 0C160 0 128 0 96 0C64 0 32 0 16 0L0 0Z" fill="#243dc7"></path></svg>