<svg id="visual" viewBox="0 0 960 300" width="960" height="300" xmlns="http://www.w3.org/2000/svg" xmlns:xlink="http://www.w3.org/1999/xlink" version="1.1"><rect x="0" y="0" width="960" height="300" fill="#202731"></rect><path d="M0 117L16 113.2C32 109.3 64 101.7 96 101.2C128 100.7 160 107.3 192 114.8C224 122.3 256 130.7 288 133.7C320 136.7 352 134.3 384 130C416 125.7 448 119.3 480 120.3C512 121.3 544 129.7 576 133.5C608 137.3 640 136.7 672 130.5C704 124.3 736 112.7 768 112.7C800 112.7 832 124.3 864 130.8C896 137.3 928 138.7 944 139.3L960 140L960 0L944 0C928 0 896 0 864 0C832 0 800 0 768 0C736 0 704 0 672 0C640 0 608 0 576 0C544 0 512 0 480 0C448 0 416 0 384 0C352 0 320 0 288 0C256 0 224 0 192 0C160 0 128 0 96 0C64 0 32 0 16 0L0 0Z" fill="#fa7268"></path><path d="M0 71L16 72.8C32 74.7 64 78.3 96 80.3C128 82.3 160 82.7 192 80.3C224 78 256 73 288 72C320 71 352 74 384 78.2C416 82.3 448 87.7 480 91.7C512 95.7 544 98.3 576 99.8C608 101.3 640 101.7 672 99.7C704 97.7 736 93.3 768 94.5C800 95.7 832 102.3 864 101.2C896 100 928 91 944 86.5L960 82L960 0L944 0C928 0 896 0 864 0C832 0 800 0 768 0C736 0 704 0 672 0C640 0 608 0 576 0C544 0 512 0 480 0C448 0 416 0 384 0C352 0 320 0 288 0C256 0 224 0 192 0C160 0 128 0 96 0C64 0 32 0 16 0L0 0Z" fill="#e95a51"></path><path d="M0 66L16 63.2C32 60.3 64 54.7 96 56.8C128 59 160 69 192 72.7C224 76.3 256 73.7 288 69.2C320 64.7 352 58.3 384 59.8C416 61.3 448 70.7 480 69.3C512 68 544 56 576 55.7C608 55.3 640 66.7 672 68.8C704 71 736 64 768 58.8C800 53.7 832 50.3 864 49.3C896 48.3 928 49.7 944 50.3L960 51L960 0L944 0C928 0 896 0 864 0C832 0 800 0 768 0C736 0 704 0 672 0C640 0 608 0 576 0C544 0 512 0 480 0C448 0 416 0 384 0C352 0 320 0 288 0C256 0 224 0 192 0C160 0 128 0 96 0C64 0 32 0 16 0L0 0Z" fill="#d9413b"></path><path d="M0 42L16 40.7C32 39.3 64 36.7 96 37C128 37.3 160 40.7 192 42.2C224 43.7 256 43.3 288 40.2C320 37 352 31 384 31.3C416 31.7 448 38.3 480 41.5C512 44.7 544 44.3 576 44.2C608 44 640 44 672 43.2C704 42.3 736 40.7 768 37C800 33.3 832 27.7 864 25C896 22.3 928 22.7 944 22.8L960 23L960 0L944 0C928 0 896 0 864 0C832 0 800 0 768 0C736 0 704 0 672 0C640 0 608 0 576 0C544 0 512 0 480 0C448 0 416 0 384 0C352 0 320 0 288 0C256 0 224 0 192 0C160 0 128 0 96 0C64 0 32 0 16 0L0 0Z" fill="#c72424"></path></svg>